<svg id="Layer_1" data-name="Layer 1" xmlns="http://www.w3.org/2000/svg" viewBox="0 0 568 203"><defs><style>.cls-1{fill:#1b1464;}.cls-2{fill:#fff;}.cls-3{fill:#90ceff;}</style></defs><rect class="cls-1" x="0.05" y="0.15" width="567.9" height="202.7"/><path class="cls-2" d="M210.24,569.78q-3.23,0-6.36-.09t-5.88-.4V620.5H174v-131h37.81a145.92,145.92,0,0,1,16.61.83,75.69,75.69,0,0,1,12.68,2.5q13.43,4.11,20.67,13.12T269,528.86a36.67,36.67,0,0,1-3.92,17.08,35.59,35.59,0,0,1-11.46,12.88,56.89,56.89,0,0,1-18.42,8.12A98.85,98.85,0,0,1,210.24,569.78ZM198,549c1.37.2,3.11.34,5.22.44s4.32.15,6.6.15A71.25,71.25,0,0,0,226,548a31,31,0,0,0,10.54-4.35,16.24,16.24,0,0,0,5.77-6.74,21,21,0,0,0,1.75-8.64,18.41,18.41,0,0,0-2.63-10q-2.64-4.2-9.18-6.54a38.94,38.94,0,0,0-8.45-1.71,118.51,118.51,0,0,0-12.35-.54H198Z" transform="translate(-89 -453.5)"/><path class="cls-2" d="M318,489.5v111h68v20H294v-131Z" transform="translate(-89 -453.5)"/><path class="cls-2" d="M504.09,528.86q0,13.71-7.6,23.25T473,566.26v.09l39.06,54.15H483.21l-35.72-51H431v51H407v-131h39.91a141.33,141.33,0,0,1,18.44,1.13A68,68,0,0,1,480,494q11.58,4.41,17.85,13.07T504.09,528.86ZM442.8,549.5a111.46,111.46,0,0,0,13.91-.73,43.32,43.32,0,0,0,9.61-2.2q7.21-2.73,10-7.46a21.09,21.09,0,0,0,2.78-10.88,19.19,19.19,0,0,0-2.2-9.32,15.08,15.08,0,0,0-7.46-6.39,31.57,31.57,0,0,0-8.59-2.29,93,93,0,0,0-12.78-.73H431v40Z" transform="translate(-89 -453.5)"/><path class="cls-2" d="M596.72,582.47a12.66,12.66,0,0,0-2.46-8.1,18,18,0,0,0-6.67-5,48.68,48.68,0,0,0-9.47-3.19q-5.25-1.23-11-2.41a146.47,146.47,0,0,1-14.63-4,41.52,41.52,0,0,1-12.27-6.38A29.6,29.6,0,0,1,531.73,543q-3.13-6.28-3.14-15.71a42.11,42.11,0,0,1,3.63-18.11,35.73,35.73,0,0,1,9.87-12.76,42,42,0,0,1,14.62-7.56,66.07,66.07,0,0,1,18.9-2.51,109.92,109.92,0,0,1,21.11,2.07c7.07,1.37,17.18,6.15,22.28,8.31v20.62c-6.81-2.68-17.36-7.65-23.61-8.86a92.88,92.88,0,0,0-17.62-1.81q-11.88,0-18.31,4.32T553,524a14.9,14.9,0,0,0,2.11,8.25,16.85,16.85,0,0,0,5.75,5.35,34.3,34.3,0,0,0,8.34,3.39q4.71,1.27,10,2.35,8.35,1.77,16,4.08a47.36,47.36,0,0,1,13.5,6.43A29.45,29.45,0,0,1,618,564.56q3.43,6.62,3.44,16.93a40.15,40.15,0,0,1-3.93,18.36,34.43,34.43,0,0,1-11.14,12.81,50.77,50.77,0,0,1-17.52,7.51,97.31,97.31,0,0,1-22.58,2.45,95.35,95.35,0,0,1-20.06-2.11A66.8,66.8,0,0,1,528,613.57V593.25c6.48,2.81,13.8,5.86,20,7.14a83.72,83.72,0,0,0,18,1.91,66.88,66.88,0,0,0,11.19-.93,33.36,33.36,0,0,0,9.87-3.19,18.75,18.75,0,0,0,7-6.14A16.52,16.52,0,0,0,596.72,582.47Z" transform="translate(-89 -453.5)"/><rect class="cls-3" x="239" y="122" width="58" height="15"/><rect class="cls-3" x="24" y="36" width="36" height="132"/></svg>